<svg width="16" height="17" viewBox="0 0 16 17" fill="none" xmlns="http://www.w3.org/2000/svg">
<g clip-path="url(#clip0_1_407)">
<path d="M15.9998 8.33202C15.9998 3.73037 12.4182 0 7.99992 0C3.58168 0 0 3.73037 0 8.33202C0 12.4907 2.92544 15.9378 6.74993 16.5628V10.7405H4.7187V8.33202H6.74993V6.49637C6.74993 4.40816 7.94429 3.25469 9.77162 3.25469C10.6466 3.25469 11.5624 3.41743 11.5624 3.41743V5.46789H10.5536C9.5599 5.46789 9.2499 6.1102 9.2499 6.76976V8.33202H11.4686L11.1139 10.7405H9.2499V16.5628C13.0744 15.9378 15.9998 12.4907 15.9998 8.33202Z" fill="#1877F2"/>
<path d="M11.1139 10.7407L11.4686 8.33221H9.24989V6.76995C9.24989 6.11104 9.55989 5.46807 10.5536 5.46807H11.5624V3.41762C11.5624 3.41762 10.6469 3.25488 9.77161 3.25488C7.94428 3.25488 6.74992 4.40835 6.74992 6.49656V8.33221H4.71869V10.7407H6.74992V16.563C7.57821 16.698 8.4216 16.698 9.24989 16.563V10.7407H11.1139Z" fill="white"/>
</g>
<defs>
<clipPath id="clip0_1_407">
<rect width="15.9998" height="16.664" fill="white"/>
</clipPath>
</defs>
</svg>
