<svg width="17" height="18" viewBox="0 0 17 18" fill="none" xmlns="http://www.w3.org/2000/svg">
<g clip-path="url(#clip0_1_410)">
<path d="M8.33317 2.23625C10.4706 2.23625 10.7238 2.24602 11.5644 2.28507C12.3456 2.32088 12.7675 2.45757 13.0487 2.57149C13.4206 2.7212 13.6894 2.90347 13.9675 3.19313C14.2487 3.48606 14.4206 3.76271 14.5644 4.15001C14.6737 4.44294 14.805 4.88557 14.8394 5.69599C14.8769 6.57476 14.8862 6.83839 14.8862 9.06135C14.8862 11.2876 14.8769 11.5512 14.8394 12.4267C14.805 13.2404 14.6737 13.6798 14.5644 13.9727C14.4206 14.36 14.2456 14.6399 13.9675 14.9296C13.6862 15.2225 13.4206 15.4015 13.0487 15.5512C12.7675 15.6651 12.3425 15.8018 11.5644 15.8376C10.7206 15.8767 10.4675 15.8864 8.33317 15.8864C6.19569 15.8864 5.94257 15.8767 5.10195 15.8376C4.32071 15.8018 3.89884 15.6651 3.61759 15.5512C3.24572 15.4015 2.97697 15.2192 2.69885 14.9296C2.41761 14.6366 2.24573 14.36 2.10198 13.9727C1.99261 13.6798 1.86136 13.2371 1.82699 12.4267C1.78949 11.5479 1.78011 11.2843 1.78011 9.06135C1.78011 6.83514 1.78949 6.57151 1.82699 5.69599C1.86136 4.88232 1.99261 4.44294 2.10198 4.15001C2.24573 3.76271 2.42073 3.4828 2.69885 3.19313C2.9801 2.90021 3.24572 2.7212 3.61759 2.57149C3.89884 2.45757 4.32384 2.32088 5.10195 2.28507C5.94257 2.24602 6.19569 2.23625 8.33317 2.23625ZM8.33317 0.73584C6.16132 0.73584 5.88944 0.745604 5.03633 0.78466C4.18634 0.823717 3.60197 0.966923 3.09572 1.17197C2.5676 1.38678 2.12073 1.66994 1.67699 2.13536C1.23012 2.59752 0.958245 3.06295 0.751998 3.60974C0.555125 4.14025 0.417626 4.74562 0.380126 5.6309C0.342627 6.52269 0.333252 6.80584 0.333252 9.06786C0.333252 11.3299 0.342627 11.613 0.380126 12.5016C0.417626 13.3868 0.555125 13.9955 0.751998 14.5227C0.958245 15.0728 1.23012 15.5382 1.67699 16.0004C2.12073 16.4625 2.5676 16.7489 3.0926 16.9605C3.60197 17.1655 4.18321 17.3087 5.0332 17.3478C5.88632 17.3869 6.15819 17.3966 8.33004 17.3966C10.5019 17.3966 10.7738 17.3869 11.6269 17.3478C12.4769 17.3087 13.0612 17.1655 13.5675 16.9605C14.0925 16.7489 14.5394 16.4625 14.9831 16.0004C15.4268 15.5382 15.7018 15.0728 15.905 14.526C16.1018 13.9955 16.2393 13.3901 16.2768 12.5048C16.3143 11.6163 16.3237 11.3331 16.3237 9.07111C16.3237 6.8091 16.3143 6.52594 16.2768 5.63741C16.2393 4.75213 16.1018 4.1435 15.905 3.61624C15.7081 3.06295 15.4362 2.59752 14.9894 2.13536C14.5456 1.67319 14.0987 1.38678 13.5737 1.17522C13.0644 0.970178 12.4831 0.826971 11.6331 0.787915C10.7769 0.745604 10.505 0.73584 8.33317 0.73584Z" fill="#000100"/>
<path d="M8.33315 4.78809C6.06442 4.78809 4.22382 6.7051 4.22382 9.06801C4.22382 11.4309 6.06442 13.3479 8.33315 13.3479C10.6019 13.3479 12.4425 11.4309 12.4425 9.06801C12.4425 6.7051 10.6019 4.78809 8.33315 4.78809ZM8.33315 11.8443C6.86129 11.8443 5.66755 10.601 5.66755 9.06801C5.66755 7.53505 6.86129 6.29176 8.33315 6.29176C9.80501 6.29176 10.9987 7.53505 10.9987 9.06801C10.9987 10.601 9.80501 11.8443 8.33315 11.8443Z" fill="#000100"/>
<path d="M13.5644 4.61882C13.5644 5.17212 13.1331 5.61801 12.605 5.61801C12.0738 5.61801 11.6456 5.16887 11.6456 4.61882C11.6456 4.06552 12.0769 3.61963 12.605 3.61963C13.1331 3.61963 13.5644 4.06878 13.5644 4.61882Z" fill="#000100"/>
</g>
<defs>
<clipPath id="clip0_1_410">
<rect width="15.9998" height="16.664" fill="white" transform="translate(0.333252 0.73584)"/>
</clipPath>
</defs>
</svg>
