<svg width="17" height="17" viewBox="0 0 17 17" fill="none" xmlns="http://www.w3.org/2000/svg">
<g clip-path="url(#clip0_1_409)">
<path d="M15.1514 0.0415039H1.51374C1.20049 0.0415039 0.900077 0.171107 0.678578 0.401801C0.457079 0.632495 0.332642 0.945383 0.332642 1.27163V15.4754C0.332642 15.8017 0.457079 16.1145 0.678578 16.3452C0.900077 16.5759 1.20049 16.7055 1.51374 16.7055H15.1514C15.4646 16.7055 15.765 16.5759 15.9865 16.3452C16.208 16.1145 16.3325 15.8017 16.3325 15.4754V1.27163C16.3325 0.945383 16.208 0.632495 15.9865 0.401801C15.765 0.171107 15.4646 0.0415039 15.1514 0.0415039ZM5.10148 14.2372H2.69595V6.27894H5.10148V14.2372ZM3.89705 5.17611C3.62418 5.17451 3.35789 5.08876 3.13177 4.92968C2.90565 4.7706 2.72984 4.54533 2.62654 4.28228C2.52323 4.01924 2.49705 3.73022 2.55131 3.4517C2.60556 3.17317 2.73782 2.91763 2.93138 2.71732C3.12495 2.51701 3.37115 2.3809 3.63892 2.32619C3.90668 2.27147 4.18401 2.30059 4.4359 2.40987C4.68779 2.51915 4.90295 2.7037 5.05424 2.94022C5.20552 3.17674 5.28614 3.45464 5.28592 3.73884C5.2885 3.92911 5.25426 4.11797 5.18527 4.29417C5.11627 4.47037 5.01391 4.63029 4.88431 4.76442C4.7547 4.89854 4.6005 5.00411 4.43088 5.07484C4.26127 5.14557 4.07972 5.18001 3.89705 5.17611ZM13.9681 14.2441H11.5636V9.89643C11.5636 8.61423 11.0403 8.21845 10.3648 8.21845C9.65143 8.21845 8.95144 8.77855 8.95144 9.92883V14.2441H6.54591V6.28473H8.85922V7.38757H8.89033C9.12255 6.89806 9.93588 6.06139 11.177 6.06139C12.5192 6.06139 13.9692 6.89112 13.9692 9.32129L13.9681 14.2441Z" fill="#0A66C2"/>
</g>
<defs>
<clipPath id="clip0_1_409">
<rect width="15.9998" height="16.664" fill="white" transform="translate(0.332642 0.0415039)"/>
</clipPath>
</defs>
</svg>
