<svg width="17" height="18" viewBox="0 0 17 18" fill="none" xmlns="http://www.w3.org/2000/svg">
<g clip-path="url(#clip0_1_408)">
<path d="M5.69838 15.4496C11.7361 15.4496 15.0384 10.2397 15.0384 5.72178C15.0384 5.5738 15.0384 5.42649 15.0288 5.27985C15.6713 4.79587 16.2259 4.19661 16.6666 3.51013C16.0675 3.78675 15.432 3.96808 14.7812 4.04804C15.4665 3.62081 15.9794 2.94876 16.2243 2.15701C15.58 2.55528 14.875 2.83595 14.1399 2.98688C13.645 2.43875 12.9904 2.0758 12.2774 1.95418C11.5645 1.83256 10.8329 1.95906 10.196 2.3141C9.559 2.66914 9.05214 3.23293 8.75383 3.91822C8.45551 4.60351 8.38236 5.3721 8.54571 6.10505C7.24061 6.03687 5.96386 5.68361 4.79834 5.06822C3.63282 4.45282 2.60457 3.58905 1.78034 2.53295C1.36056 3.2856 1.23199 4.1766 1.42081 5.02452C1.60962 5.87243 2.10163 6.61352 2.79665 7.0969C2.27422 7.08095 1.76317 6.93417 1.30674 6.66896V6.71229C1.30695 7.50164 1.56931 8.26662 2.04931 8.87748C2.52932 9.48834 3.19743 9.90746 3.94031 10.0638C3.45704 10.2011 2.94997 10.2211 2.45809 10.1224C2.66794 10.8017 3.07634 11.3957 3.62621 11.8214C4.17608 12.2471 4.83992 12.4832 5.52494 12.4967C4.84433 13.0539 4.06492 13.4659 3.2313 13.709C2.39769 13.9522 1.52622 14.0218 0.666748 13.9138C2.16795 14.9171 3.91466 15.4494 5.69838 15.4469" fill="#1DA1F2"/>
</g>
<defs>
<clipPath id="clip0_1_408">
<rect width="15.9998" height="16.664" fill="white" transform="translate(0.666748 0.347168)"/>
</clipPath>
</defs>
</svg>
