<svg width="16" height="18" viewBox="0 0 16 18" fill="none" xmlns="http://www.w3.org/2000/svg">
<g clip-path="url(#clip0_1_411)">
<path d="M15.681 5.0308C15.5906 4.67628 15.4123 4.35272 15.1641 4.09251C14.9158 3.8323 14.6063 3.64456 14.2665 3.54808C13.0156 3.19775 8.01566 3.19775 8.01566 3.19775C8.01566 3.19775 3.01572 3.19775 1.76482 3.54808C1.42502 3.64456 1.11551 3.8323 0.867263 4.09251C0.619018 4.35272 0.440746 4.67628 0.350289 5.0308C0.0157471 6.3393 0.0157471 9.06804 0.0157471 9.06804C0.0157471 9.06804 0.0157471 11.7968 0.350289 13.1053C0.440746 13.4598 0.619018 13.7834 0.867263 14.0436C1.11551 14.3038 1.42502 14.4915 1.76482 14.588C3.01572 14.9383 8.01566 14.9383 8.01566 14.9383C8.01566 14.9383 13.0156 14.9383 14.2665 14.588C14.6063 14.4915 14.9158 14.3038 15.1641 14.0436C15.4123 13.7834 15.5906 13.4598 15.681 13.1053C16.0156 11.7968 16.0156 9.06804 16.0156 9.06804C16.0156 9.06804 16.0156 6.3393 15.681 5.0308Z" fill="#FF0302"/>
<path d="M6.37933 11.5455V6.58984L10.5611 9.06767L6.37933 11.5455Z" fill="#FEFEFE"/>
</g>
<defs>
<clipPath id="clip0_1_411">
<rect width="15.9998" height="16.664" fill="white" transform="translate(-0.00012207 0.73584)"/>
</clipPath>
</defs>
</svg>
