<svg width="12" height="17" viewBox="0 0 12 17" fill="none" xmlns="http://www.w3.org/2000/svg">
<path fill-rule="evenodd" clip-rule="evenodd" d="M6.93406 0.30843L11.0642 4.17071C11.3177 4.40771 11.3323 4.80387 11.097 5.05554L7.26177 9.15678C7.02643 9.40846 6.63018 9.42034 6.37673 9.18334C6.12328 8.94633 6.10861 8.55017 6.34396 8.2985L9.1504 5.2974L0.649198 5.55244L0.602853 4.30109L9.10406 4.04605L6.08179 1.21982C5.82834 0.982809 5.81367 0.586655 6.04902 0.334982C6.28437 0.0833095 6.68062 0.0714218 6.93406 0.30843Z" fill="#868484"/>
<path fill-rule="evenodd" clip-rule="evenodd" d="M4.16775 16.5666L0.183263 12.5821C-0.061245 12.3376 -0.061245 11.9412 0.183263 11.6967L4.16775 7.7122C4.41226 7.46769 4.80869 7.46769 5.05319 7.7122C5.2977 7.95671 5.2977 8.35313 5.05319 8.59764L2.13753 11.5133H10.6436V12.7655H2.13753L5.05319 15.6812C5.2977 15.9257 5.2977 16.3221 5.05319 16.5666C4.80869 16.8111 4.41226 16.8111 4.16775 16.5666Z" fill="#868484"/>
</svg>
