<svg width="138" height="40" viewBox="0 0 138 40" fill="none" xmlns="http://www.w3.org/2000/svg">
<path d="M137.033 34.7956C137.033 36.8877 135.285 38.5824 133.123 38.5824H5.14868C2.98737 38.5824 1.23303 36.8877 1.23303 34.7956V4.59694C1.23303 2.50578 2.98737 0.805176 5.14868 0.805176H133.122C135.285 0.805176 137.032 2.50578 137.032 4.59694L137.033 34.7956Z" fill="white"/>
<path d="M132.71 0.850844C135.065 0.850844 136.981 2.69969 136.981 4.97179V34.4159C136.981 36.688 135.065 38.5368 132.71 38.5368H5.55637C3.20148 38.5368 1.28527 36.688 1.28527 34.4159V4.97179C1.28527 2.69969 3.20148 0.850844 5.55637 0.850844H132.71ZM132.71 0.0644425H5.55637C2.76026 0.0644425 0.470215 2.27398 0.470215 4.97179V34.4159C0.470215 37.1137 2.76026 39.3232 5.55637 39.3232H132.71C135.506 39.3232 137.796 37.1137 137.796 34.4159V4.97179C137.796 2.27398 135.506 0.0644425 132.71 0.0644425Z" fill="#A6A6A6"/>
<path d="M31.1181 19.4816C31.0886 16.3183 33.8025 14.7794 33.9266 14.7077C32.3896 12.5456 30.0073 12.2501 29.1701 12.2266C27.1692 12.0234 25.2283 13.3818 24.209 13.3818C23.1694 13.3818 21.5999 12.2462 19.9082 12.2796C17.7313 12.312 15.6948 13.528 14.5779 15.4164C12.2729 19.2667 13.992 24.9248 16.2004 28.0371C17.3051 29.5613 18.596 31.2632 20.2856 31.2033C21.9386 31.1375 22.556 30.1865 24.5508 30.1865C26.5273 30.1865 27.1071 31.2033 28.8303 31.165C30.6044 31.1375 31.7213 29.6339 32.7873 28.096C34.064 26.3489 34.5767 24.6284 34.597 24.5401C34.5553 24.5264 31.1516 23.273 31.1181 19.4816Z" fill="black"/>
<path d="M27.8629 10.1792C28.752 9.1065 29.3603 7.64705 29.1914 6.16602C27.9046 6.22098 26.2954 7.0248 25.3687 8.07399C24.5488 8.99854 23.8164 10.5139 24.0056 11.939C25.4511 12.0431 26.9352 11.2353 27.8629 10.1792Z" fill="black"/>
<path d="M55.0397 30.9847H52.7295L51.4641 27.1482H47.0656L45.8602 30.9847H43.6111L47.9689 17.9233H50.6605L55.0397 30.9847ZM51.0826 25.5386L49.9383 22.128C49.8172 21.7795 49.5904 20.959 49.2557 19.6674H49.215C49.0817 20.2229 48.8671 21.0434 48.5721 22.128L47.4481 25.5386H51.0826Z" fill="black"/>
<path d="M66.246 26.1597C66.246 27.7614 65.7974 29.0275 64.9002 29.957C64.0966 30.7844 63.0987 31.1976 61.9076 31.1976C60.6218 31.1976 59.6981 30.752 59.1356 29.8608H59.0949V34.8221H56.9262V24.6669C56.9262 23.6599 56.8987 22.6264 56.8458 21.5664H58.7531L58.8742 23.0592H58.9149C59.6381 21.9344 60.7357 21.373 62.2087 21.373C63.3602 21.373 64.3214 21.8118 65.0905 22.6902C65.8615 23.5696 66.246 24.7257 66.246 26.1597ZM64.0366 26.2362C64.0366 25.3195 63.823 24.5638 63.3937 23.969C62.9248 23.3487 62.2951 23.0386 61.5058 23.0386C60.9707 23.0386 60.4845 23.2113 60.0501 23.5519C59.6147 23.8954 59.3299 24.344 59.1966 24.8995C59.1295 25.1586 59.0959 25.3706 59.0959 25.5374V27.1078C59.0959 27.7928 59.3136 28.3709 59.749 28.843C60.1844 29.3151 60.75 29.5506 61.4457 29.5506C62.2626 29.5506 62.8983 29.2464 63.353 28.6398C63.8088 28.0323 64.0366 27.2314 64.0366 26.2362Z" fill="black"/>
<path d="M77.4731 26.1597C77.4731 27.7614 77.0245 29.0275 76.1263 29.957C75.3237 30.7844 74.3258 31.1976 73.1346 31.1976C71.8488 31.1976 70.9252 30.752 70.3636 29.8608H70.323V34.8221H68.1542V24.6669C68.1542 23.6599 68.1267 22.6264 68.0739 21.5664H69.9812L70.1022 23.0592H70.1429C70.8651 21.9344 71.9627 21.373 73.4367 21.373C74.5872 21.373 75.5485 21.8118 76.3195 22.6902C77.0875 23.5696 77.4731 24.7257 77.4731 26.1597ZM75.2636 26.2362C75.2636 25.3195 75.049 24.5638 74.6197 23.969C74.1508 23.3487 73.5232 23.0386 72.7328 23.0386C72.1967 23.0386 71.7115 23.2113 71.2761 23.5519C70.8407 23.8954 70.5569 24.344 70.4237 24.8995C70.3575 25.1586 70.323 25.3706 70.323 25.5374V27.1078C70.323 27.7928 70.5406 28.3709 70.974 28.843C71.4094 29.3141 71.9749 29.5506 72.6728 29.5506C73.4896 29.5506 74.1254 29.2464 74.5801 28.6398C75.0358 28.0323 75.2636 27.2314 75.2636 26.2362Z" fill="black"/>
<path d="M90.0263 27.3219C90.0263 28.4329 89.6265 29.3368 88.824 30.0346C87.942 30.7972 86.7142 31.1781 85.1365 31.1781C83.6798 31.1781 82.512 30.9072 81.6281 30.3644L82.1306 28.6204C83.0827 29.1759 84.1274 29.4546 85.2657 29.4546C86.0825 29.4546 86.7183 29.276 87.175 28.9207C87.6297 28.5654 87.8566 28.0884 87.8566 27.4936C87.8566 26.9636 87.6694 26.5171 87.294 26.1549C86.9207 25.7927 86.2971 25.4561 85.4264 25.145C83.0562 24.2921 81.8722 23.0427 81.8722 21.3997C81.8722 20.326 82.2872 19.4456 83.1183 18.7605C83.9463 18.0745 85.051 17.7319 86.4324 17.7319C87.6643 17.7319 88.6876 17.939 89.5045 18.3522L88.9623 20.058C88.1994 19.6576 87.3368 19.4574 86.3714 19.4574C85.6085 19.4574 85.0124 19.6389 84.5851 20.0001C84.224 20.323 84.043 20.7166 84.043 21.1828C84.043 21.699 84.2495 22.126 84.6645 22.4616C85.0256 22.7718 85.6817 23.1074 86.6339 23.4696C87.7986 23.9221 88.6541 24.4511 89.2044 25.0576C89.7527 25.6622 90.0263 26.4189 90.0263 27.3219Z" fill="black"/>
<path d="M97.1971 23.1368H94.8066V27.7094C94.8066 28.8725 95.2278 29.4535 96.0721 29.4535C96.4596 29.4535 96.7811 29.4211 97.0354 29.3563L97.0954 30.9453C96.6682 31.0994 96.1056 31.1769 95.4088 31.1769C94.5523 31.1769 93.883 30.9247 93.3998 30.4212C92.9187 29.9167 92.6766 29.0707 92.6766 27.8822V23.1348H91.2524V21.5645H92.6766V19.84L94.8066 19.2197V21.5645H97.1971V23.1368Z" fill="black"/>
<path d="M107.982 26.1979C107.982 27.6456 107.553 28.8342 106.696 29.7636C105.798 30.7206 104.606 31.1975 103.12 31.1975C101.687 31.1975 100.547 30.7392 99.6967 29.8225C98.8463 28.9058 98.4211 27.7487 98.4211 26.354C98.4211 24.8946 98.8586 23.6991 99.7364 22.7697C100.612 21.8392 101.794 21.374 103.28 21.374C104.713 21.374 105.865 21.8324 106.735 22.75C107.567 23.6402 107.982 24.7895 107.982 26.1979ZM105.732 26.2657C105.732 25.3971 105.54 24.6521 105.15 24.0309C104.695 23.2791 104.045 22.9041 103.203 22.9041C102.331 22.9041 101.669 23.28 101.214 24.0309C100.825 24.6531 100.633 25.4098 100.633 26.3049C100.633 27.1735 100.825 27.9185 101.214 28.5387C101.683 29.2906 102.338 29.6655 103.184 29.6655C104.012 29.6655 104.662 29.2827 105.131 28.5191C105.531 27.8861 105.732 27.1333 105.732 26.2657Z" fill="black"/>
<path d="M115.032 23.4066C114.817 23.3684 114.589 23.3487 114.348 23.3487C113.586 23.3487 112.996 23.6265 112.581 24.183C112.219 24.6737 112.038 25.294 112.038 26.0429V30.9846H109.871L109.891 24.5324C109.891 23.4469 109.863 22.4586 109.81 21.5674H111.699L111.778 23.3694H111.838C112.067 22.75 112.428 22.2515 112.922 21.8775C113.405 21.5409 113.927 21.373 114.49 21.373C114.69 21.373 114.871 21.3868 115.032 21.4113V23.4066Z" fill="black"/>
<path d="M124.73 25.83C124.73 26.2049 124.705 26.5209 124.651 26.7791H118.144C118.17 27.7095 118.484 28.4211 119.088 28.9118C119.637 29.3505 120.346 29.5704 121.216 29.5704C122.18 29.5704 123.059 29.4222 123.849 29.1248L124.189 30.5773C123.265 30.966 122.175 31.1594 120.916 31.1594C119.403 31.1594 118.215 30.7295 117.35 29.8707C116.487 29.0119 116.055 27.8587 116.055 26.412C116.055 24.9918 116.457 23.8091 117.261 22.8659C118.104 21.859 119.242 21.3555 120.674 21.3555C122.081 21.3555 123.146 21.859 123.869 22.8659C124.442 23.6658 124.73 24.6552 124.73 25.83ZM122.662 25.2872C122.676 24.6669 122.535 24.1311 122.241 23.6786C121.865 23.0966 121.289 22.8061 120.513 22.8061C119.804 22.8061 119.227 23.0897 118.786 23.659C118.425 24.1114 118.211 24.6542 118.144 25.2862H122.662V25.2872Z" fill="black"/>
<path d="M50.3653 9.88807C50.3653 11.0433 50.0062 11.9128 49.2891 12.4968C48.6248 13.0356 47.6808 13.3055 46.4581 13.3055C45.8518 13.3055 45.333 13.28 44.8987 13.229V6.91717C45.4653 6.82884 46.0756 6.78369 46.7348 6.78369C47.8995 6.78369 48.7774 7.02808 49.3694 7.51685C50.0327 8.06941 50.3653 8.8595 50.3653 9.88807ZM49.2412 9.91654C49.2412 9.16768 49.0358 8.59352 48.6248 8.19308C48.2138 7.79362 47.6137 7.5934 46.8233 7.5934C46.4876 7.5934 46.2018 7.61499 45.9647 7.66014V12.4585C46.096 12.4782 46.336 12.487 46.6849 12.487C47.5008 12.487 48.1304 12.2681 48.5739 11.8304C49.0175 11.3927 49.2412 10.7547 49.2412 9.91654Z" fill="black"/>
<path d="M56.3247 10.8971C56.3247 11.6087 56.1142 12.1917 55.693 12.649C55.2515 13.1191 54.6666 13.3537 53.9363 13.3537C53.2323 13.3537 52.6719 13.129 52.2538 12.6775C51.8367 12.227 51.6282 11.6587 51.6282 10.9736C51.6282 10.2572 51.8428 9.66928 52.2741 9.2129C52.7054 8.75651 53.2852 8.52783 54.0156 8.52783C54.7195 8.52783 55.2851 8.75259 55.7134 9.20308C56.1203 9.64082 56.3247 10.2061 56.3247 10.8971ZM55.219 10.9305C55.219 10.5035 55.1234 10.1374 54.9332 9.8322C54.7094 9.46317 54.391 9.27865 53.977 9.27865C53.5487 9.27865 53.2232 9.46317 52.9994 9.8322C52.8082 10.1374 52.7136 10.5094 52.7136 10.9491C52.7136 11.3761 52.8092 11.7421 52.9994 12.0474C53.2303 12.4164 53.5518 12.6009 53.9668 12.6009C54.3737 12.6009 54.6931 12.4135 54.923 12.0376C55.1203 11.7264 55.219 11.3574 55.219 10.9305Z" fill="black"/>
<path d="M64.3168 8.62207L62.8164 13.2487H61.8399L61.2183 11.2396C61.0607 10.7381 60.9325 10.2395 60.8328 9.74487H60.8135C60.7209 10.2533 60.5927 10.7509 60.428 11.2396L59.7678 13.2487H58.78L57.3691 8.62207H58.4647L59.0069 10.8215C59.1381 11.3417 59.2459 11.8374 59.3324 12.3065H59.3517C59.4311 11.9198 59.5623 11.4271 59.7474 10.8314L60.428 8.62305H61.2967L61.9487 10.7842C62.1064 11.3113 62.2345 11.8187 62.3332 12.3075H62.3627C62.4349 11.8315 62.5438 11.3241 62.6882 10.7842L63.2701 8.62305H64.3168V8.62207Z" fill="black"/>
<path d="M69.843 13.2487H68.7769V10.5987C68.7769 9.78216 68.4555 9.37387 67.8105 9.37387C67.4942 9.37387 67.2389 9.48576 67.0405 9.71052C66.8442 9.93527 66.7445 10.2003 66.7445 10.5035V13.2477H65.6784V9.94411C65.6784 9.53778 65.6652 9.0971 65.6398 8.6201H66.5766L66.6265 9.34345H66.656C66.7801 9.11869 66.9652 8.93319 67.2083 8.78499C67.4972 8.61225 67.8207 8.5249 68.1747 8.5249C68.6223 8.5249 68.9946 8.66427 69.2906 8.94399C69.6588 9.28652 69.843 9.79787 69.843 10.477V13.2487Z" fill="black"/>
<path d="M72.7827 13.2486H71.7177V6.49902H72.7827V13.2486Z" fill="black"/>
<path d="M79.059 10.8971C79.059 11.6087 78.8484 12.1917 78.4273 12.649C77.9858 13.1191 77.3999 13.3537 76.6705 13.3537C75.9656 13.3537 75.4051 13.129 74.988 12.6775C74.571 12.227 74.3624 11.6587 74.3624 10.9736C74.3624 10.2572 74.5771 9.66928 75.0084 9.2129C75.4397 8.75651 76.0195 8.52783 76.7488 8.52783C77.4538 8.52783 78.0183 8.75259 78.4476 9.20308C78.8545 9.64082 79.059 10.2061 79.059 10.8971ZM77.9522 10.9305C77.9522 10.5035 77.8566 10.1374 77.6664 9.8322C77.4436 9.46317 77.1242 9.27865 76.7112 9.27865C76.2819 9.27865 75.9564 9.46317 75.7337 9.8322C75.5424 10.1374 75.4478 10.5094 75.4478 10.9491C75.4478 11.3761 75.5434 11.7421 75.7337 12.0474C75.9646 12.4164 76.286 12.6009 76.701 12.6009C77.1079 12.6009 77.4263 12.4135 77.6562 12.0376C77.8546 11.7264 77.9522 11.3574 77.9522 10.9305Z" fill="black"/>
<path d="M84.2187 13.2487H83.2615L83.1821 12.7158H83.1526C82.8251 13.1407 82.3581 13.3537 81.7519 13.3537C81.2992 13.3537 80.933 13.2134 80.6573 12.9346C80.4071 12.6814 80.282 12.3664 80.282 11.9924C80.282 11.4271 80.5261 10.9962 81.0174 10.6979C81.5077 10.3995 82.1974 10.2533 83.0855 10.2601V10.1738C83.0855 9.56426 82.7539 9.26001 82.0896 9.26001C81.6166 9.26001 81.1995 9.37484 80.8394 9.60254L80.6228 8.92729C81.0683 8.66131 81.6186 8.52783 82.2676 8.52783C83.5208 8.52783 84.1495 9.16579 84.1495 10.4417V12.1455C84.1495 12.6078 84.1729 12.9758 84.2187 13.2487ZM83.1119 11.6587V10.9452C81.936 10.9256 81.348 11.2367 81.348 11.8776C81.348 12.119 81.4152 12.2996 81.5525 12.4203C81.6898 12.5411 81.8648 12.6009 82.0733 12.6009C82.3073 12.6009 82.526 12.5293 82.7254 12.387C82.9258 12.2437 83.0488 12.0621 83.0946 11.8393C83.1058 11.7892 83.1119 11.7284 83.1119 11.6587Z" fill="black"/>
<path d="M90.2763 13.2486H89.3302L89.2804 12.5056H89.2509C88.9488 13.0709 88.4341 13.3536 87.7108 13.3536C87.133 13.3536 86.6519 13.1347 86.2704 12.697C85.8889 12.2593 85.6987 11.691 85.6987 10.9932C85.6987 10.2443 85.9052 9.63776 86.3203 9.17451C86.7221 8.74266 87.2144 8.52674 87.8003 8.52674C88.4442 8.52674 88.8949 8.73579 89.1512 9.15488H89.1715V6.49902H90.2386V12.0021C90.2386 12.4526 90.2508 12.8678 90.2763 13.2486ZM89.1715 11.2974V10.526C89.1715 10.3925 89.1614 10.2845 89.142 10.2021C89.082 9.95478 88.9528 9.7467 88.7565 9.57887C88.5582 9.41104 88.3191 9.32664 88.0434 9.32664C87.6457 9.32664 87.3344 9.47876 87.1056 9.784C86.8787 10.0892 86.7638 10.4789 86.7638 10.9549C86.7638 11.4123 86.8726 11.7833 87.0913 12.0689C87.3222 12.3731 87.6335 12.5252 88.0231 12.5252C88.373 12.5252 88.6528 12.3986 88.8654 12.1444C89.0708 11.9099 89.1715 11.6272 89.1715 11.2974Z" fill="black"/>
<path d="M99.3933 10.8971C99.3933 11.6087 99.1828 12.1917 98.7616 12.649C98.3201 13.1191 97.7363 13.3537 97.0049 13.3537C96.302 13.3537 95.7415 13.129 95.3224 12.6775C94.9053 12.227 94.6968 11.6587 94.6968 10.9736C94.6968 10.2572 94.9114 9.66928 95.3427 9.2129C95.774 8.75651 96.3538 8.52783 97.0852 8.52783C97.7881 8.52783 98.3547 8.75259 98.782 9.20308C99.1889 9.64082 99.3933 10.2061 99.3933 10.8971ZM98.2886 10.9305C98.2886 10.5035 98.193 10.1374 98.0028 9.8322C97.778 9.46317 97.4606 9.27865 97.0456 9.27865C96.6183 9.27865 96.2928 9.46317 96.068 9.8322C95.8768 10.1374 95.7822 10.5094 95.7822 10.9491C95.7822 11.3761 95.8778 11.7421 96.068 12.0474C96.2989 12.4164 96.6204 12.6009 97.0354 12.6009C97.4423 12.6009 97.7627 12.4135 97.9926 12.0376C98.1889 11.7264 98.2886 11.3574 98.2886 10.9305Z" fill="black"/>
<path d="M105.126 13.2487H104.061V10.5987C104.061 9.78216 103.739 9.37387 103.093 9.37387C102.777 9.37387 102.522 9.48576 102.324 9.71052C102.127 9.93527 102.028 10.2003 102.028 10.5035V13.2477H100.961V9.94411C100.961 9.53778 100.949 9.0971 100.923 8.6201H101.859L101.909 9.34345H101.939C102.064 9.11869 102.249 8.93319 102.491 8.78499C102.781 8.61225 103.103 8.5249 103.458 8.5249C103.905 8.5249 104.277 8.66427 104.573 8.94399C104.943 9.28652 105.126 9.79787 105.126 10.477V13.2487Z" fill="black"/>
<path d="M112.302 9.39242H111.128V11.64C111.128 12.2112 111.336 12.4968 111.749 12.4968C111.941 12.4968 112.099 12.4811 112.224 12.4487L112.252 13.229C112.041 13.3055 111.765 13.3438 111.424 13.3438C111.003 13.3438 110.675 13.2201 110.438 12.9728C110.2 12.7255 110.082 12.3093 110.082 11.7254V9.39242H109.381V8.62197H110.082V7.77398L111.127 7.46973V8.62099H112.301V9.39242H112.302Z" fill="black"/>
<path d="M117.944 13.2486H116.877V10.6182C116.877 9.7889 116.555 9.37374 115.911 9.37374C115.417 9.37374 115.079 9.6142 114.894 10.0951C114.863 10.1962 114.844 10.3199 114.844 10.4651V13.2476H113.779V6.49902H114.844V9.28737H114.865C115.2 8.77996 115.682 8.52674 116.305 8.52674C116.747 8.52674 117.112 8.6661 117.402 8.94582C117.763 9.29424 117.944 9.81246 117.944 10.4975V13.2486Z" fill="black"/>
<path d="M123.766 10.7165C123.766 10.9011 123.751 11.0561 123.726 11.1827H120.529C120.543 11.6401 120.696 11.9885 120.992 12.23C121.262 12.4459 121.611 12.5539 122.038 12.5539C122.511 12.5539 122.943 12.4812 123.331 12.335L123.498 13.0495C123.043 13.2399 122.508 13.3351 121.889 13.3351C121.146 13.3351 120.561 13.1241 120.138 12.7021C119.713 12.28 119.502 11.7137 119.502 11.0031C119.502 10.3053 119.699 9.72428 120.094 9.26103C120.507 8.76637 121.066 8.51904 121.771 8.51904C122.46 8.51904 122.984 8.76637 123.338 9.26103C123.624 9.65362 123.766 10.1394 123.766 10.7165ZM122.748 10.4506C122.756 10.1453 122.686 9.8823 122.542 9.66049C122.357 9.37488 122.075 9.23159 121.693 9.23159C121.346 9.23159 121.062 9.37096 120.845 9.65068C120.668 9.87347 120.563 10.1394 120.529 10.4506H122.748Z" fill="black"/>
</svg>
