<svg width="139" height="40" viewBox="0 0 139 40" fill="none" xmlns="http://www.w3.org/2000/svg">
<path d="M133.384 39.4951H5.85177C3.04734 39.4951 0.750488 37.276 0.750488 34.5664V4.99421C0.750488 2.28466 3.04734 0.0655082 5.85177 0.0655082H133.384C136.188 0.0655082 138.485 2.28466 138.485 4.99421V34.5664C138.485 37.276 136.188 39.4951 133.384 39.4951Z" fill="white"/>
<path d="M133.384 0.85533C135.746 0.85533 137.668 2.71222 137.668 4.99421V34.5664C137.668 36.8484 135.746 38.7053 133.384 38.7053H5.85177C3.48988 38.7053 1.56797 36.8484 1.56797 34.5664V4.99421C1.56797 2.71222 3.48988 0.85533 5.85177 0.85533H133.384ZM133.384 0.0655082H5.85177C3.04734 0.0655082 0.750488 2.28466 0.750488 4.99421V34.5664C0.750488 37.276 3.04734 39.4951 5.85177 39.4951H133.384C136.188 39.4951 138.485 37.276 138.485 34.5664V4.99421C138.485 2.28466 136.188 0.0655082 133.384 0.0655082Z" fill="#A6A6A6"/>
<path d="M49.1244 10.1631C49.1244 10.9862 48.8693 11.6454 48.3668 12.137C47.7891 12.7199 47.0367 13.0131 46.1146 13.0131C45.2334 13.0131 44.4809 12.7149 43.8637 12.1272C43.2451 11.5308 42.9365 10.7989 42.9365 9.92282C42.9365 9.04674 43.2451 8.31483 43.8637 7.72339C44.4809 7.13071 45.2334 6.83252 46.1146 6.83252C46.5533 6.83252 46.9716 6.92 47.3708 7.08265C47.7687 7.24653 48.0926 7.46832 48.3273 7.74187L47.7942 8.26185C47.3848 7.79485 46.8275 7.56443 46.1146 7.56443C45.4719 7.56443 44.9145 7.7813 44.4414 8.21872C43.9734 8.65738 43.7387 9.22541 43.7387 9.92282C43.7387 10.6202 43.9734 11.1932 44.4414 11.6319C44.9145 12.0643 45.4719 12.2861 46.1146 12.2861C46.7969 12.2861 47.3708 12.0643 47.8236 11.6269C48.122 11.3374 48.2916 10.9381 48.3362 10.428H46.1146V9.71582H49.0785C49.1142 9.86984 49.1244 10.0189 49.1244 10.1631Z" fill="black"/>
<path fill-rule="evenodd" clip-rule="evenodd" d="M46.1219 6.90742C45.2609 6.90742 44.5282 7.19795 43.9257 7.77649C43.3225 8.3532 43.0214 9.06572 43.0214 9.92267C43.0214 10.7795 43.3224 11.492 43.9256 12.0737C44.5282 12.6474 45.261 12.9379 46.1219 12.9379C47.0252 12.9379 47.7566 12.6514 48.3181 12.085L48.3189 12.0841C48.8045 11.609 49.0541 10.9701 49.0541 10.1629C49.0541 10.041 49.0466 9.91716 49.0224 9.79072H46.1995V10.3528H48.428L48.4209 10.4342C48.3751 10.9572 48.2003 11.3747 47.8858 11.6798C47.4175 12.1322 46.8233 12.361 46.1219 12.361C45.4585 12.361 44.8824 12.1314 44.3954 11.6862C43.9105 11.2318 43.6684 10.6379 43.6684 9.92267C43.6684 9.20728 43.9099 8.61902 44.3947 8.16468C44.8821 7.71409 45.4589 7.48924 46.1219 7.48924C46.8228 7.48924 47.3844 7.70701 47.8049 8.15182L48.229 7.73813C48.0078 7.49874 47.7108 7.30113 47.3478 7.1516C46.9576 6.99263 46.5496 6.90742 46.1219 6.90742ZM43.8163 7.66993C44.4483 7.06315 45.2205 6.75732 46.1219 6.75732C46.5716 6.75732 47.0001 6.84706 47.4082 7.01335C47.8153 7.18098 48.1504 7.40939 48.3943 7.69381L48.4393 7.74621L47.797 8.37267L47.7423 8.31023C47.3497 7.86239 46.8154 7.63934 46.1219 7.63934C45.4995 7.63934 44.9614 7.84851 44.5025 8.27264C44.0513 8.69559 43.8236 9.24334 43.8236 9.92267C43.8236 10.6021 44.0514 11.1547 44.5024 11.5775C44.9616 11.9971 45.4999 12.2109 46.1219 12.2109C46.7851 12.2109 47.3388 11.9961 47.776 11.5737C48.0427 11.3148 48.2042 10.9605 48.2579 10.5029H46.0443V9.64062H49.1479L49.1615 9.69925C49.1989 9.86041 49.2093 10.0154 49.2093 10.1629C49.2093 11.0018 48.9489 11.6811 48.4298 12.1892C47.8359 12.7881 47.0625 13.088 46.1219 13.088C45.2205 13.088 44.4484 12.7822 43.8165 12.1805C43.1828 11.5695 42.8662 10.8179 42.8662 9.92267C42.8662 9.0275 43.1824 8.2761 43.8163 7.66993Z" fill="white"/>
<path d="M53.8334 7.69401H51.0494V9.56692H53.5592V10.2791H51.0494V12.152H53.8334V12.8778H50.2612V6.96826H53.8334V7.69401Z" fill="black"/>
<path fill-rule="evenodd" clip-rule="evenodd" d="M50.1807 6.89307H53.9081V7.76892H51.124V9.49173H53.6339V10.354H51.124V12.0768H53.9081V12.9527H50.1807V6.89307ZM50.3359 7.04317V12.8026H53.7528V12.2269H50.9688V10.2039H53.4786V9.64183H50.9688V7.61882H53.7528V7.04317H50.3359Z" fill="white"/>
<path d="M57.1491 12.8778H56.361V7.69401H54.6533V6.96826H58.858V7.69401H57.1491V12.8778Z" fill="black"/>
<path fill-rule="evenodd" clip-rule="evenodd" d="M54.5723 6.89307H58.9322V7.76892H57.2233V12.8776H57.1457V12.9527H56.2799V7.76892H54.5723V6.89307ZM57.0681 12.8026V7.61882H58.777V7.04317H54.7275V7.61882H56.4352V12.8026H57.0681Z" fill="white"/>
<path d="M61.9004 12.8778V6.96826H62.6873V12.8778H61.9004Z" fill="black"/>
<path fill-rule="evenodd" clip-rule="evenodd" d="M61.8252 6.89307H62.7673V12.9527H61.8252V6.89307ZM61.9804 7.04317V12.8026H62.6121V7.04317H61.9804Z" fill="white"/>
<path d="M66.1784 12.8778H65.3966V7.69401H63.6826V6.96826H67.8924V7.69401H66.1784V12.8778Z" fill="black"/>
<path fill-rule="evenodd" clip-rule="evenodd" d="M63.6035 6.89307H67.9686V7.76892H66.2545V12.9527H65.3175V7.76892H63.6035V6.89307ZM63.7587 7.04317V7.61882H65.4728V12.8026H66.0993V7.61882H67.8133V7.04317H63.7587Z" fill="white"/>
<path d="M75.8503 12.1173C75.247 12.7149 74.4997 13.0131 73.6082 13.0131C72.7117 13.0131 71.9644 12.7149 71.3611 12.1173C70.7592 11.521 70.4595 10.789 70.4595 9.92282C70.4595 9.0566 70.7592 8.32469 71.3611 7.72831C71.9644 7.13071 72.7117 6.83252 73.6082 6.83252C74.4946 6.83252 75.2419 7.13071 75.8452 7.73324C76.4522 8.33454 76.7519 9.06153 76.7519 9.92282C76.7519 10.789 76.4522 11.521 75.8503 12.1173ZM71.9439 11.622C72.398 12.0643 72.9502 12.2861 73.6082 12.2861C74.2612 12.2861 74.8185 12.0643 75.2674 11.622C75.7202 11.1796 75.9497 10.6116 75.9497 9.92282C75.9497 9.23404 75.7202 8.666 75.2674 8.22365C74.8185 7.7813 74.2612 7.5595 73.6082 7.5595C72.9502 7.5595 72.398 7.7813 71.9439 8.22365C71.4912 8.666 71.2617 9.23404 71.2617 9.92282C71.2617 10.6116 71.4912 11.1796 71.9439 11.622Z" fill="black"/>
<path fill-rule="evenodd" clip-rule="evenodd" d="M73.6053 6.90742C72.7288 6.90742 72.0017 7.19804 71.4137 7.78059C70.8266 8.36227 70.5341 9.07509 70.5341 9.92267C70.5341 10.7703 70.8266 11.4831 71.4137 12.0648C72.0017 12.6473 72.7288 12.9379 73.6053 12.9379C74.4766 12.9379 75.2037 12.6474 75.7918 12.0648C76.3789 11.4831 76.6713 10.7703 76.6713 9.92267C76.6713 9.0803 76.3791 8.37233 75.7867 7.78552L75.7864 7.7853C75.1984 7.19791 74.4714 6.90742 73.6053 6.90742ZM71.3026 7.67575C71.9211 7.06308 72.6887 6.75732 73.6053 6.75732C74.5118 6.75732 75.2795 7.06317 75.8979 7.68078C76.5195 8.29656 76.8266 9.04252 76.8266 9.92267C76.8266 10.8075 76.5196 11.5585 75.9028 12.1696L75.8473 12.1172L75.9028 12.1696C75.2845 12.7822 74.5168 13.088 73.6053 13.088C72.6887 13.088 71.9211 12.7823 71.3026 12.1696L71.3576 12.1177L71.3026 12.1696C70.6859 11.5585 70.3789 10.8075 70.3789 9.92267C70.3789 9.03782 70.6859 8.28681 71.3026 7.67575L71.3026 7.67575ZM71.8859 8.17064C72.3547 7.71389 72.9268 7.48431 73.6053 7.48431C74.2784 7.48431 74.8558 7.71375 75.3198 8.17082C75.7883 8.62865 76.0244 9.2163 76.0244 9.92267C76.0244 10.629 75.7883 11.2167 75.3198 11.6745C74.8559 12.1316 74.2784 12.361 73.6053 12.361C72.9268 12.361 72.3547 12.1315 71.8859 11.6747L71.941 11.6218L71.8858 11.6746C71.4172 11.2168 71.1811 10.6291 71.1811 9.92267C71.1811 9.21624 71.4172 8.62856 71.8858 8.17071L71.8859 8.17064ZM71.9962 11.5691C72.4354 11.997 72.9676 12.2109 73.6053 12.2109C74.238 12.2109 74.7752 11.9968 75.2091 11.5693L75.2093 11.5691C75.6462 11.1422 75.8692 10.5938 75.8692 9.92267C75.8692 9.25153 75.6462 8.70315 75.2093 8.27629L75.2091 8.27607C74.7752 7.84852 74.238 7.63441 73.6053 7.63441C72.9676 7.63441 72.4354 7.8484 71.9961 8.27633C71.5593 8.70318 71.3363 9.25155 71.3363 9.92267C71.3363 10.5938 71.5593 11.1421 71.9961 11.569" fill="white"/>
<path d="M77.8579 12.8778V6.96826H78.8144L81.7884 11.5643H81.8229L81.7884 10.4282V6.96826H82.5753V12.8778H81.754L78.6397 8.05504H78.6052L78.6397 9.19604V12.8778H77.8579Z" fill="black"/>
<path fill-rule="evenodd" clip-rule="evenodd" d="M77.7769 6.89307H78.854L81.7352 11.3456L81.7074 10.4281L81.7074 6.89307H82.6495V12.9527H81.7075L78.6861 8.27375L78.7139 9.19589L78.7139 12.9527H77.8545V12.8776H77.7769V6.89307ZM77.9321 12.8026H78.5586V9.19699L78.5219 7.97985H78.6793L81.7936 12.8026H82.4943V7.04317H81.8626V10.427L81.8994 11.6392H81.742L78.768 7.04317H77.9321V12.8026Z" fill="white"/>
<path d="M70.2674 21.508C67.8711 21.508 65.9134 23.27 65.9134 25.7011C65.9134 28.1124 67.8711 29.8929 70.2674 29.8929C72.6688 29.8929 74.6264 28.1124 74.6264 25.7011C74.6264 23.27 72.6688 21.508 70.2674 21.508ZM70.2674 28.2418C68.9525 28.2418 67.8213 27.1932 67.8213 25.7011C67.8213 24.1892 68.9525 23.1591 70.2674 23.1591C71.5822 23.1591 72.7186 24.1892 72.7186 25.7011C72.7186 27.1932 71.5822 28.2418 70.2674 28.2418ZM60.7675 21.508C58.3661 21.508 56.4136 23.27 56.4136 25.7011C56.4136 28.1124 58.3661 29.8929 60.7675 29.8929C63.1677 29.8929 65.1215 28.1124 65.1215 25.7011C65.1215 23.27 63.1677 21.508 60.7675 21.508ZM60.7675 28.2418C59.4514 28.2418 58.3164 27.1932 58.3164 25.7011C58.3164 24.1892 59.4514 23.1591 60.7675 23.1591C62.0824 23.1591 63.2136 24.1892 63.2136 25.7011C63.2136 27.1932 62.0824 28.2418 60.7675 28.2418ZM49.4631 22.7931V24.5749H53.8668C53.738 25.5705 53.3936 26.3024 52.8656 26.8125C52.2229 27.4286 51.2217 28.1124 49.4631 28.1124C46.753 28.1124 44.6309 25.9993 44.6309 23.3809C44.6309 20.7625 46.753 18.6493 49.4631 18.6493C50.9284 18.6493 51.9946 19.2026 52.7815 19.9197L54.081 18.6641C52.9804 17.6488 51.5163 16.8688 49.4631 16.8688C45.7468 16.8688 42.6235 19.7903 42.6235 23.3809C42.6235 26.9714 45.7468 29.8929 49.4631 29.8929C51.4717 29.8929 52.9804 29.2571 54.1665 28.0644C55.3818 26.8901 55.7606 25.239 55.7606 23.9058C55.7606 23.4918 55.7249 23.111 55.6611 22.7931H49.4631ZM95.6884 24.1744C95.33 23.2367 94.2243 21.508 91.9721 21.508C89.7403 21.508 87.8821 23.2071 87.8821 25.7011C87.8821 28.0496 89.7211 29.8929 92.1863 29.8929C94.1796 29.8929 95.33 28.7187 95.8031 28.0348L94.3238 27.0823C93.8302 27.7798 93.1581 28.2418 92.1863 28.2418C91.2209 28.2418 90.5284 27.8143 90.0846 26.9714L95.8886 24.6513L95.6884 24.1744ZM89.7709 25.5705C89.7211 23.9538 91.0704 23.1258 92.0371 23.1258C92.7947 23.1258 93.4374 23.4918 93.6517 24.0155L89.7709 25.5705ZM85.0534 29.6379H86.9613V17.3161H85.0534V29.6379ZM81.9289 22.442H81.8651C81.4366 21.9516 80.6192 21.508 79.5836 21.508C77.4105 21.508 75.4235 23.3513 75.4235 25.7146C75.4235 28.0644 77.4105 29.8929 79.5836 29.8929C80.6192 29.8929 81.4366 29.4457 81.8651 28.9405H81.9289V29.5418C81.9289 31.1448 81.0426 32.0061 79.6129 32.0061C78.4473 32.0061 77.7242 31.1929 77.4258 30.509L75.7666 31.1781C76.2448 32.2895 77.5112 33.6572 79.6129 33.6572C81.8498 33.6572 83.7373 32.3856 83.7373 29.2916V21.763H81.9289V22.442ZM79.7468 28.2418C78.432 28.2418 77.3314 27.1784 77.3314 25.7146C77.3314 24.2372 78.432 23.1591 79.7468 23.1591C81.0426 23.1591 82.0641 24.2372 82.0641 25.7146C82.0641 27.1784 81.0426 28.2418 79.7468 28.2418ZM104.621 17.3161H100.058V29.6379H101.96V24.9692H104.621C106.734 24.9692 108.806 23.4918 108.806 21.142C108.806 18.7935 106.729 17.3161 104.621 17.3161ZM104.67 23.2552H101.96V19.0301H104.67C106.091 19.0301 106.902 20.1698 106.902 21.142C106.902 22.0957 106.091 23.2552 104.67 23.2552ZM116.433 21.4846C115.058 21.4846 113.628 22.0711 113.04 23.371L114.729 24.0549C115.092 23.371 115.761 23.1492 116.467 23.1492C117.454 23.1492 118.455 23.7222 118.471 24.7338V24.8632C118.126 24.671 117.389 24.3863 116.482 24.3863C114.664 24.3863 112.811 25.3536 112.811 27.1587C112.811 28.8099 114.3 29.8732 115.975 29.8732C117.255 29.8732 117.962 29.315 118.406 28.6657H118.471V29.6182H120.308V24.8915C120.308 22.7069 118.62 21.4846 116.433 21.4846ZM116.203 28.2369C115.581 28.2369 114.714 27.9387 114.714 27.1932C114.714 26.2395 115.795 25.8736 116.731 25.8736C117.569 25.8736 117.962 26.0522 118.471 26.2876C118.321 27.4286 117.305 28.2369 116.203 28.2369ZM127.004 21.7544L124.817 27.0959H124.752L122.49 21.7544H120.439L123.836 29.2189L121.897 33.3726H123.886L129.121 21.7544H127.004ZM109.852 29.6379H111.76V17.3161H109.852V29.6379Z" fill="black"/>
<path d="M11.396 7.49663C11.0963 7.79975 10.9229 8.27167 10.9229 8.88283V30.6825C10.9229 31.2937 11.0963 31.7656 11.396 32.0687L11.47 32.1353L24.1135 19.9244V19.636L11.47 7.42517L11.396 7.49663Z" fill="url(#paint0_linear_8_608)"/>
<path d="M28.3216 23.9966L24.1118 19.9242V19.6359L28.3267 15.5636L28.4211 15.6165L33.4127 18.3606C34.8372 19.1393 34.8372 20.4208 33.4127 21.2045L28.4211 23.9436L28.3216 23.9966Z" fill="url(#paint1_linear_8_608)"/>
<path d="M28.4203 23.9438L24.111 19.7803L11.3936 32.0688C11.8667 32.5493 12.6383 32.6073 13.5157 32.1267L28.4203 23.9438Z" fill="url(#paint2_linear_8_608)"/>
<path d="M28.4203 15.6167L13.5157 7.43385C12.6383 6.95823 11.8667 7.01615 11.3936 7.49669L24.111 19.7803L28.4203 15.6167Z" fill="url(#paint3_linear_8_608)"/>
<defs>
<linearGradient id="paint0_linear_8_608" x1="22.9909" y1="30.9095" x2="6.45756" y2="13.7973" gradientUnits="userSpaceOnUse">
<stop stop-color="#00A0FF"/>
<stop offset="0.0066" stop-color="#00A1FF"/>
<stop offset="0.2601" stop-color="#00BEFF"/>
<stop offset="0.5122" stop-color="#00D2FF"/>
<stop offset="0.7604" stop-color="#00DFFF"/>
<stop offset="1" stop-color="#00E3FF"/>
</linearGradient>
<linearGradient id="paint1_linear_8_608" x1="35.2677" y1="19.7787" x2="10.5807" y2="19.7787" gradientUnits="userSpaceOnUse">
<stop stop-color="#FFE000"/>
<stop offset="0.4087" stop-color="#FFBD00"/>
<stop offset="0.7754" stop-color="#FFA500"/>
<stop offset="1" stop-color="#FF9C00"/>
</linearGradient>
<linearGradient id="paint2_linear_8_608" x1="26.0771" y1="17.5169" x2="3.65651" y2="-5.68862" gradientUnits="userSpaceOnUse">
<stop stop-color="#FF3A44"/>
<stop offset="1" stop-color="#C31162"/>
</linearGradient>
<linearGradient id="paint3_linear_8_608" x1="8.1923" y1="39.3214" x2="18.2041" y2="28.9592" gradientUnits="userSpaceOnUse">
<stop stop-color="#32A071"/>
<stop offset="0.0685" stop-color="#2DA771"/>
<stop offset="0.4762" stop-color="#15CF74"/>
<stop offset="0.8009" stop-color="#06E775"/>
<stop offset="1" stop-color="#00F076"/>
</linearGradient>
</defs>
</svg>
