<svg width="25" height="19" viewBox="0 0 25 19" fill="none" xmlns="http://www.w3.org/2000/svg">
<g filter="url(#filter0_b_35_2865)">
<g filter="url(#filter1_b_35_2865)">
<ellipse cx="10.34" cy="9.5" rx="7.5314" ry="7.5" fill="#FEFEFE"/>
<path d="M10.34 18C15.0478 18 18.8714 14.1984 18.8714 9.5C18.8714 4.80164 15.0478 1 10.34 1C5.63218 1 1.80859 4.80164 1.80859 9.5C1.80859 14.1984 5.63218 18 10.34 18Z" stroke="#04396D" stroke-width="2"/>
</g>
<path d="M3.31641 6L7.03189 10L10.4461 13.2L17.375 6L9.84362 15.6L3.31641 6Z" fill="#0A66C2"/>
<path d="M5.91016 10.001L10.9526 11.3343L15.5862 12.401L24.9897 10.001L14.7685 13.201L5.91016 10.001Z" fill="#BD0909"/>
</g>
<defs>
<filter id="filter0_b_35_2865" x="-6.19141" y="-7" width="38.1797" height="33" filterUnits="userSpaceOnUse" color-interpolation-filters="sRGB">
<feFlood flood-opacity="0" result="BackgroundImageFix"/>
<feGaussianBlur in="BackgroundImageFix" stdDeviation="3.5"/>
<feComposite in2="SourceAlpha" operator="in" result="effect1_backgroundBlur_35_2865"/>
<feBlend mode="normal" in="SourceGraphic" in2="effect1_backgroundBlur_35_2865" result="shape"/>
</filter>
<filter id="filter1_b_35_2865" x="-3.19141" y="-4" width="27.0625" height="27" filterUnits="userSpaceOnUse" color-interpolation-filters="sRGB">
<feFlood flood-opacity="0" result="BackgroundImageFix"/>
<feGaussianBlur in="BackgroundImageFix" stdDeviation="2"/>
<feComposite in2="SourceAlpha" operator="in" result="effect1_backgroundBlur_35_2865"/>
<feBlend mode="normal" in="SourceGraphic" in2="effect1_backgroundBlur_35_2865" result="shape"/>
</filter>
</defs>
</svg>
